<svg xmlns="http://www.w3.org/2000/svg" viewBox="0 0 32 32" width="32" height="32">
  <!-- Background circle -->
  <circle cx="16" cy="16" r="15" fill="#6B3A2A"/>

  <!-- Open book icon — left page -->
  <path d="M16 10 C16 10 11 9 7 10.5 L7 22.5 C11 21 16 22 16 22 Z"
        fill="#F5ECD7" opacity="0.95"/>

  <!-- Open book icon — right page -->
  <path d="M16 10 C16 10 21 9 25 10.5 L25 22.5 C21 21 16 22 16 22 Z"
        fill="#F5ECD7" opacity="0.85"/>

  <!-- Spine line -->
  <line x1="16" y1="10" x2="16" y2="22"
        stroke="#6B3A2A" stroke-width="1.2" stroke-linecap="round"/>

  <!-- Left page lines -->
  <line x1="9" y1="13.5" x2="14.5" y2="13" stroke="#6B3A2A" stroke-width="0.8" opacity="0.4" stroke-linecap="round"/>
  <line x1="9" y1="16" x2="14.5" y2="15.5" stroke="#6B3A2A" stroke-width="0.8" opacity="0.4" stroke-linecap="round"/>
  <line x1="9" y1="18.5" x2="14.5" y2="18" stroke="#6B3A2A" stroke-width="0.8" opacity="0.4" stroke-linecap="round"/>

  <!-- Right page lines -->
  <line x1="17.5" y1="13" x2="23" y2="13.5" stroke="#6B3A2A" stroke-width="0.8" opacity="0.4" stroke-linecap="round"/>
  <line x1="17.5" y1="15.5" x2="23" y2="16" stroke="#6B3A2A" stroke-width="0.8" opacity="0.4" stroke-linecap="round"/>
  <line x1="17.5" y1="18" x2="23" y2="18.5" stroke="#6B3A2A" stroke-width="0.8" opacity="0.4" stroke-linecap="round"/>
</svg>
